<?xml version="1.0" encoding="UTF-8"?>
<!-- Created with Inkscape (http://www.inkscape.org/) -->
<svg width="32" height="32" version="1.1" viewBox="0 0 8.4667 8.4667" xml:space="preserve" xmlns="http://www.w3.org/2000/svg"><rect x=".096976" y=".25081" width="8.3156" height="8.0449" ry="1.4961" fill="#e6e6e6" style="paint-order:stroke fill markers"/><g transform="translate(1.3664 .73577)"><path class="clr-i-solid clr-i-solid-path-1" d="m1.6982 0.26588h-1.6514a0.25322 0.25322 0 0 0-0.27524 0.22019v6.3855h2.2019v-6.3855a0.25322 0.25322 0 0 0-0.27524-0.22019" fill="#005826" fill-rule="evenodd" stroke="#003819" stroke-width=".22019"/><path class="clr-i-solid clr-i-solid-path-2" d="m6.3266 6.451-1.5281-4.0295a0.22019 0.22019 0 0 0-0.28405-0.12771l-0.77947 0.30386v-1.0107a0.22019 0.22019 0 0 0-0.22019-0.22019h-1.101v5.5048h1.3211v-4.0317l1.5259 4.0317z" fill="#005826" fill-rule="evenodd" stroke="#003819" stroke-width=".22019"/><path d="m-1.1093-0.3947h7.9269v7.9269h-7.9269z" fill="none"/></g><g transform="translate(.73577 1.9445)" stroke-opacity="0"><rect x="4.3678" y="-.52513" width="2.5586" height="2.6078" fill="#ffe6d5"/><path d="m4.4579 2.2047q-0.13471 0-0.23055-0.095846-0.095846-0.095844-0.09601-0.23071v-2.2859q0-0.13471 0.09601-0.23055 0.096009-0.095846 0.23055-0.09601h0.16328v-0.32656h0.32656v0.32656h1.3062v-0.32656h0.32656v0.32656h0.16328q0.1347 0 0.23071 0.09601 0.096008 0.096008 0.095844 0.23055v2.2859q0 0.13471-0.095844 0.23071-0.095846 0.096008-0.23071 0.095846zm0-0.32656h2.2859v-1.6328h-2.2859zm0-1.9594h2.2859v-0.32656h-2.2859zm0 0v-0.32656zm1.143 0.97968q-0.069393 0-0.11626-0.047026-0.046862-0.047026-0.047026-0.11626-1.135e-4 -0.06923 0.047026-0.11626 0.047189-0.047024 0.11626-0.047024 0.069068 0 0.11642 0.047024 0.04735 0.047026 0.046862 0.11626-5.278e-4 0.06923-0.047026 0.11642-0.046533 0.04719-0.11626 0.046862m-0.65312 0q-0.069393 0-0.11626-0.047026-0.046859-0.047026-0.047024-0.11626-1.664e-4 -0.06923 0.047024-0.11626 0.047189-0.047024 0.11626-0.047024 0.069069 0 0.11642 0.047024 0.04735 0.047026 0.046862 0.11626-5.278e-4 0.06923-0.047026 0.11642-0.046533 0.04719-0.11626 0.046862m1.3062 0q-0.069396 0-0.11626-0.047026-0.046862-0.047026-0.047026-0.11626-1.161e-4 -0.06923 0.047026-0.11626 0.047188-0.047024 0.11626-0.047024 0.069066 0 0.11642 0.047024 0.04735 0.047026 0.046859 0.11626-5.278e-4 0.06923-0.047024 0.11642-0.046535 0.047189-0.11625 0.046862m-0.65312 0.65312q-0.069393 0-0.11626-0.047026-0.046862-0.047024-0.047026-0.11625-1.136e-4 -0.069233 0.047026-0.11626 0.04719-0.047026 0.11626-0.047026 0.069069 0 0.11642 0.047026 0.04735 0.047024 0.046862 0.11626-5.279e-4 0.06923-0.047026 0.11642-0.046532 0.04719-0.11626 0.046862m-0.65312 0q-0.069393 0-0.11626-0.047026-0.046859-0.047024-0.047024-0.11625-1.663e-4 -0.069233 0.047024-0.11626 0.04719-0.047026 0.11626-0.047026 0.069069 0 0.11642 0.047026 0.04735 0.047024 0.046862 0.11626-5.278e-4 0.06923-0.047026 0.11642-0.046532 0.04719-0.11626 0.046862m1.3062 0q-0.069396 0-0.11626-0.047026-0.046862-0.047024-0.047026-0.11625-1.161e-4 -0.069233 0.047026-0.11626 0.047188-0.047026 0.11626-0.047026 0.069066 0 0.11642 0.047026 0.04735 0.047024 0.046859 0.11626-5.279e-4 0.06923-0.047024 0.11642-0.046535 0.04719-0.11625 0.046862" fill="#d45500"/></g></svg>
