<?xml version="1.0" encoding="UTF-8" standalone="no"?>
<!-- Created with Inkscape (http://www.inkscape.org/) -->

<svg
   width="32"
   height="32"
   viewBox="0 0 8.4666668 8.4666668"
   version="1.1"
   id="svg5"
   xml:space="preserve"
   inkscape:version="1.2.1 (9c6d41e410, 2022-07-14)"
   sodipodi:docname="logo_editable.svg"
   xmlns:inkscape="http://www.inkscape.org/namespaces/inkscape"
   xmlns:sodipodi="http://sodipodi.sourceforge.net/DTD/sodipodi-0.dtd"
   xmlns="http://www.w3.org/2000/svg"
   xmlns:svg="http://www.w3.org/2000/svg"><sodipodi:namedview
     id="namedview7"
     pagecolor="#ffffff"
     bordercolor="#000000"
     borderopacity="0.25"
     inkscape:showpageshadow="2"
     inkscape:pageopacity="0.0"
     inkscape:pagecheckerboard="0"
     inkscape:deskcolor="#d1d1d1"
     inkscape:document-units="mm"
     showgrid="false"
     inkscape:zoom="10.068772"
     inkscape:cx="3.7740452"
     inkscape:cy="3.3271188"
     inkscape:window-width="2560"
     inkscape:window-height="1351"
     inkscape:window-x="1911"
     inkscape:window-y="-9"
     inkscape:window-maximized="1"
     inkscape:current-layer="layer1" /><defs
     id="defs2"><linearGradient
       id="linearGradient6585"
       inkscape:swatch="solid"><stop
         style="stop-color:#338000;stop-opacity:1;"
         offset="0"
         id="stop6583" /></linearGradient><linearGradient
       id="linearGradient6575"
       inkscape:swatch="gradient"><stop
         style="stop-color:#338000;stop-opacity:1;"
         offset="0"
         id="stop6571" /><stop
         style="stop-color:#338000;stop-opacity:0;"
         offset="1"
         id="stop6573" /></linearGradient></defs><g
     inkscape:groupmode="layer"
     id="layer3"
     inkscape:label="背景"><rect
       style="opacity:1;fill:#e6e6e6;fill-opacity:1;stroke:none;stroke-width:0.519146;stroke-linecap:butt;stroke-linejoin:round;stroke-dasharray:none;stroke-opacity:0;paint-order:stroke fill markers"
       id="rect947"
       width="8.3155584"
       height="8.0449343"
       x="0.096975803"
       y="0.25080621"
       inkscape:transform-center-x="1.374317"
       inkscape:transform-center-y="0.62626994"
       ry="1.4960916" /></g><g
     inkscape:label="书"
     inkscape:groupmode="layer"
     id="layer1"
     transform="translate(1.3664361,0.73577327)"><path
       fill="currentColor"
       d="M 1.698163,0.26587666 H 0.04673329 A 0.25321918,0.25321918 0 0 0 -0.22850466,0.48606554 V 6.8715935 H 1.9734016 V 0.48606554 A 0.25321918,0.25321918 0 0 0 1.698163,0.26587666"
       class="clr-i-solid clr-i-solid-path-1"
       id="path6146"
       style="fill:#005826;fill-opacity:1;fill-rule:evenodd;stroke:#003819;stroke-width:0.220191;stroke-opacity:1" /><path
       fill="currentColor"
       d="M 6.3265697,6.4510283 4.7984456,2.4215429 A 0.22019059,0.22019059 0 0 0 4.5144003,2.2938301 L 3.7349262,2.5976935 V 1.5870184 A 0.22019059,0.22019059 0 0 0 3.5147356,1.3668294 H 2.4137825 V 6.8715935 H 3.7349262 V 2.8399043 l 1.5259219,4.0316892 z"
       class="clr-i-solid clr-i-solid-path-2"
       id="path6148"
       style="fill:#005826;fill-opacity:1;fill-rule:evenodd;stroke:#003819;stroke-width:0.220191;stroke-opacity:1" /><path
       fill="none"
       d="M -1.1092671,-0.39469569 H 6.8175945 V 7.5321662 h -7.9268616 z"
       id="path6150"
       style="display:inline;fill:none;fill-opacity:1;fill-rule:evenodd;stroke:none;stroke-width:0.220191;stroke-opacity:1" /></g><g
     inkscape:groupmode="layer"
     id="layer2"
     inkscape:label="时钟"
     transform="translate(0.73577327,1.9445437)"><rect
       style="opacity:1;fill:#ffe6d5;fill-opacity:1;fill-rule:nonzero;stroke:#000000;stroke-width:0.00421309;stroke-linecap:round;stroke-linejoin:miter;stroke-dasharray:none;stroke-opacity:0"
       id="rect9730"
       width="2.5586336"
       height="2.6078382"
       x="4.3677597"
       y="-0.52513027" /><path
       fill="currentColor"
       d="m 4.4578578,2.2046826 q -0.1347067,0 -0.2305522,-0.095846 -0.095846,-0.095844 -0.09601,-0.2307146 v -2.28592585 q 0,-0.13470663 0.09601,-0.23055055 0.096009,-0.0958464 0.2305522,-0.0960102 H 4.621139 v -0.3265611 h 0.3265587 v 0.32656078 H 6.2539436 V -1.0609257 h 0.3265583 v 0.32656078 h 0.1632817 q 0.134704,0 0.2307142,0.0960102 0.096008,0.0960075 0.095844,0.23055055 V 1.8781217 q 0,0.1347067 -0.095844,0.2307144 -0.095846,0.096008 -0.2307142,0.095846 z m 0,-0.3265609 H 6.7437834 V 0.24531749 H 4.4578578 Z m 0,-1.95936494 H 6.7437834 V -0.40780415 H 4.4578578 Z m 0,0 v -0.32656091 z m 1.1429614,0.97968248 q -0.069393,0 -0.1162558,-0.047026 -0.046862,-0.047026 -0.047026,-0.11625586 -1.135e-4,-0.0692297 0.047026,-0.11625567 0.047189,-0.047024 0.1162558,-0.047024 0.069068,0 0.1164195,0.047024 0.04735,0.047026 0.046862,0.11625567 -5.278e-4,0.0692296 -0.047026,0.11641953 -0.046533,0.0471897 -0.1162558,0.0468623 m -0.6531216,0 q -0.069393,0 -0.1162559,-0.047026 -0.046859,-0.047026 -0.047024,-0.11625576 -1.664e-4,-0.0692297 0.047024,-0.11625587 0.047189,-0.047024 0.1162559,-0.047024 0.069069,0 0.1164193,0.047024 0.04735,0.047026 0.046862,0.11625587 -5.278e-4,0.0692296 -0.047026,0.11641943 -0.046533,0.0471897 -0.1162559,0.0468623 m 1.306246,0 q -0.069396,0 -0.1162557,-0.047026 -0.046862,-0.047026 -0.047026,-0.11625576 -1.161e-4,-0.0692297 0.047026,-0.11625577 0.047188,-0.047024 0.1162557,-0.047024 0.069066,0 0.1164167,0.047024 0.04735,0.047026 0.046859,0.11625577 -5.278e-4,0.0692296 -0.047024,0.11641943 -0.046535,0.0471887 -0.1162531,0.0468623 M 5.600819,1.5515607 q -0.069393,0 -0.1162558,-0.047026 -0.046862,-0.047024 -0.047026,-0.1162531 -1.136e-4,-0.069233 0.047026,-0.1162558 0.04719,-0.047026 0.1162558,-0.047026 0.069069,0 0.1164195,0.047026 0.04735,0.047024 0.046862,0.1162558 -5.279e-4,0.06923 -0.047026,0.1164167 -0.046532,0.04719 -0.1162558,0.046862 m -0.6531216,0 q -0.069393,0 -0.1162559,-0.047026 -0.046859,-0.047024 -0.047024,-0.1162531 -1.663e-4,-0.069233 0.047024,-0.1162558 0.04719,-0.047026 0.1162559,-0.047026 0.069069,0 0.1164194,0.047026 0.04735,0.047024 0.046862,0.1162558 -5.278e-4,0.06923 -0.047026,0.1164168 -0.046532,0.04719 -0.1162559,0.046862 m 1.306246,0 q -0.069396,0 -0.1162557,-0.047026 Q 6.0908249,1.45751 6.0906609,1.3882808 6.0905448,1.3190478 6.1376869,1.272025 6.1848749,1.224999 6.2539426,1.224999 q 0.069066,0 0.1164168,0.047026 0.04735,0.047024 0.046859,0.1162558 -5.279e-4,0.06923 -0.047024,0.1164168 -0.046535,0.04719 -0.1162531,0.046862"
       id="path8442"
       style="fill:#d45500;stroke:#000000;stroke-width:0.163282;stroke-opacity:0" /></g></svg>
